<?xml version="1.0" encoding="utf-8"?>
<!-- Generator: Adobe Illustrator 15.1.0, SVG Export Plug-In . SVG Version: 6.00 Build 0)  -->
<!DOCTYPE svg PUBLIC "-//W3C//DTD SVG 1.1 Basic//EN" "http://www.w3.org/Graphics/SVG/1.1/DTD/svg11-basic.dtd">
<svg version="1.1" baseProfile="basic"
	 id="svg2" inkscape:version="0.46+devel" sodipodi:version="0.32" sodipodi:docname="Linear_visible_spectrum.svg" inkscape:output_extension="org.inkscape.output.svg.inkscape" xmlns:inkscape="http://www.inkscape.org/namespaces/inkscape" xmlns:sodipodi="http://sodipodi.sourceforge.net/DTD/sodipodi-0.dtd" xmlns:svg="http://www.w3.org/2000/svg" xmlns:rdf="http://www.w3.org/1999/02/22-rdf-syntax-ns#" xmlns:cc="http://creativecommons.org/ns#" xmlns:dc="http://purl.org/dc/elements/1.1/"
	 xmlns="http://www.w3.org/2000/svg" xmlns:xlink="http://www.w3.org/1999/xlink" x="0px" y="0px" width="623.622px"
	 height="170.079px" viewBox="-9.311 -27.54 623.622 170.079" xml:space="preserve">
<inkscape:perspective  id="perspective10" inkscape:vp_z="744.09448 : 526.18109 : 1" sodipodi:type="inkscape:persp3d" inkscape:vp_x="0 : 526.18109 : 1" inkscape:vp_y="0 : 1000 : 0" inkscape:persp3d-origin="372.04724 : 350.78739 : 1">
	</inkscape:perspective>
<rect id="rect2383" x="3" y="24.257" width="599" height="64"/>
<text transform="matrix(0 -1 1 0 458.2695 117.9912)" font-family="'Helvetica'" font-size="14.1732">656</text>
<text transform="matrix(0 -1 1 0 180.4165 118.0811)" font-family="'Helvetica'" font-size="14.1732">486</text>
<rect x="222.182" y="106.991" fill="none" width="191.318" height="22"/>
<text transform="matrix(1 0 0 1 222.1816 125.334)"><tspan x="0" y="0" font-family="'Helvetica'" font-size="19.8425">wavelength, </tspan><tspan x="111.411" y="0" font-family="'Helvetica'" font-size="25.5118">λ</tspan><tspan x="125.6" y="0" font-family="'Helvetica'" font-size="19.8425"> (nm)</tspan></text>
<rect x="3" y="-15.992" fill="none" width="412.5" height="29.17"/>
<text transform="matrix(1 0 0 1 3 4.3887)" font-family="'Helvetica'" font-size="28.3465">Hydrogen Emission Spectrum</text>
<text transform="matrix(0 -1 1 0 109.4165 117.9912)" font-family="'Helvetica'" font-size="14.1732">434</text>
<text transform="matrix(0 -1 1 0 69.98 117.9912)" font-family="'Helvetica'" font-size="14.1732">410</text>
<rect x="449.27" y="24.257" fill="#FF0000" width="7" height="64"/>
<rect x="171" y="24.257" fill="#00DF92" width="7" height="64"/>
<rect x="100" y="24.257" fill="#1F52FF" width="7" height="64"/>
<rect x="62" y="24.257" fill="#8D1FFF" width="7" height="64"/>
</svg>
